<?xml version="1.0" encoding="UTF-8"?>
<svg width="32px" height="49px" viewBox="0 0 32 49" version="1.1" xmlns="http://www.w3.org/2000/svg" xmlns:xlink="http://www.w3.org/1999/xlink">
    <!-- Generator: Sketch 42 (36781) - http://www.bohemiancoding.com/sketch -->
    <title>map_marker_balloon_highlighted</title>
    <desc>Created with Sketch.</desc>
    <defs></defs>
    <g id="pictogams" stroke="none" stroke-width="1" fill="none" fill-rule="evenodd">
        <path d="M14.2906321,28.916007 L11.019025,44.7939866 C10.805201,45.8317316 12.1404192,46.4457013 12.7889213,45.607833 C12.8187749,45.569262 12.876131,45.4949636 12.959158,45.3871119 C13.0972306,45.2077562 13.2573077,44.9991993 13.4375581,44.763615 C13.9522469,44.0909248 14.5256287,43.3362385 15.1430607,42.5169334 C16.9073677,40.1757759 18.6717898,37.7851321 20.3194744,35.4835531 C20.6596607,35.0083616 20.9918973,34.5410559 21.3155433,34.0823938 C24.2333122,29.9474137 26.3212888,26.7084158 27.3164946,24.6580751 C28.4179551,22.3888268 29.1511189,20.2942848 29.5787869,18.3992092 C29.7618502,17.6724393 29.8882795,16.9048615 29.9504036,16.1259172 C29.9994712,15.595688 30.0068138,15.2078053 29.9951606,14.9708409 C29.9802067,7.25241845 23.7189798,1 15.99759,1 C8.26693452,1 2,7.2674137 2,14.9986603 C2,21.4849992 6.35399831,26.9515294 12.3600979,28.5515616 C12.9869324,28.7168166 13.6314955,28.839396 14.2906321,28.916007 Z" id="Combined-Shape" fill="#FFFFFF" fill-rule="nonzero"></path>
        <path d="M18.6932447,34.3193464 C19.0326568,33.8452365 19.3621363,33.3817732 19.6814138,32.929302 C22.6401723,28.7362326 24.6128845,25.6479272 25.5172459,23.7847457 C26.5194137,21.7200621 27.219907,19.7666012 27.6393657,17.9106958 C27.7960738,17.2885572 27.9037698,16.6310085 27.9589127,15.9416239 C27.9953535,15.5478411 28.0058426,15.2372022 27.9975746,15.0690764 C27.9823453,8.35817687 22.6147525,3 15.99759,3 C9.37153826,3 4,8.37194897 4,14.9986603 C4,21.1253535 8.53620718,26.2337105 14.5215362,26.9293808 L16.690051,27.1814257 L13.8658422,40.8880624 C15.5842664,38.6019045 17.211567,36.3890376 18.6932447,34.3193464 Z" id="Path" fill="#FF3333" fill-rule="nonzero"></path>
        <circle id="Oval-9" fill="#FFFFFF" fill-rule="nonzero" cx="16" cy="15" r="4"></circle>
    </g>
</svg>